<svg xmlns="http://www.w3.org/2000/svg" width="26.831" height="26.831" viewBox="0 0 26.831 26.831">
  <path id="Path_166" data-name="Path 166" d="M8.049,21.465a2.683,2.683,0,1,0,2.683,2.683A2.691,2.691,0,0,0,8.049,21.465ZM0,0V2.683H2.683l4.83,10.2L5.635,16.1a4.767,4.767,0,0,0-.268,1.342,2.691,2.691,0,0,0,2.683,2.683h16.1V17.44H8.586a.289.289,0,0,1-.268-.268v-.134l1.207-2.281h9.928a2.447,2.447,0,0,0,2.281-1.342l4.83-8.72a.739.739,0,0,0,.268-.671A1.267,1.267,0,0,0,25.49,2.683H5.635L4.427,0ZM21.465,21.465a2.683,2.683,0,1,0,2.683,2.683A2.691,2.691,0,0,0,21.465,21.465Z" fill="#9a9a9a"/>
</svg>
